<?xml version="1.0" encoding="UTF-8" standalone="no"?>
<svg
   xmlns:dc="http://purl.org/dc/elements/1.1/"
   xmlns:cc="http://creativecommons.org/ns#"
   xmlns:rdf="http://www.w3.org/1999/02/22-rdf-syntax-ns#"
   xmlns:svg="http://www.w3.org/2000/svg"
   xmlns="http://www.w3.org/2000/svg"
   viewBox="0 0 824.42175 982.3578"
   gorn="0"
   width="20.940306mm"
   id="svg121"
   version="1.0"
   height="24.95188mm">
  <metadata
     id="metadata70">
    <rdf:RDF>
      <cc:Work
         rdf:about="">
        <dc:title></dc:title>
        <dc:format>image/svg+xml</dc:format>
        <dc:type
           rdf:resource="http://purl.org/dc/dcmitype/StillImage" />
        <cc:license
           rdf:resource="http://creativecommons.org/licenses/by-sa/4.0/" />
      </cc:Work>
      <cc:License
         rdf:about="http://creativecommons.org/licenses/by-sa/4.0/">
        <cc:permits
           rdf:resource="http://creativecommons.org/ns#Reproduction" />
        <cc:permits
           rdf:resource="http://creativecommons.org/ns#Distribution" />
        <cc:requires
           rdf:resource="http://creativecommons.org/ns#Notice" />
        <cc:requires
           rdf:resource="http://creativecommons.org/ns#Attribution" />
        <cc:permits
           rdf:resource="http://creativecommons.org/ns#DerivativeWorks" />
        <cc:requires
           rdf:resource="http://creativecommons.org/ns#ShareAlike" />
      </cc:License>
    </rdf:RDF>
  </metadata>
  <defs
     id="defs68" />
  <desc
     id="desc2">
    <referenceFile>ky_006_1_breadboard.svg</referenceFile>
  </desc>
  <g
     transform="matrix(0.99092014,0,0,0.99528303,44.757976,6.9342751)"
     id="breadboard">
    <path
       id="path4970"
       d="M -45.168096,-6.9671389 V 721.37953 H 786.80785 V -6.9671389 Z"
       style="fill:#333333;fill-opacity:1;fill-rule:nonzero;stroke:none;stroke-width:16.49946213" />
    <path
       id="path4968"
       d="m 149.11631,64.199535 c 0,23.351467 56.53139,172.618355 -59.538777,41.143275 C 203.77392,288.18362 150.54993,-12.443219 149.11631,64.199535 Z"
       style="display:none;fill:#333333;fill-opacity:1;fill-rule:nonzero;stroke:none;stroke-width:16.49946213" />
    <path
       id="path5"
       d="m 653.62902,21.944271 c 30.63687,-0.905469 16.81913,9.92385 59.53876,42.255264 l -11.56574,1.16119 c 0,23.351467 -16.63682,39.982085 -47.97302,39.982085 v 0 c -32.903,0 -57.97194,-18.903655 -57.97194,-41.143275 0,-22.239624 26.64933,-41.329528 57.97194,-42.255264 z"
       style="display:none;fill:#333333;fill-opacity:1;fill-rule:nonzero;stroke:none;stroke-width:16.49946213" />
    <text
       style="font-size:49px;font-family:OCRA;display:inline;fill:#ffffff;stroke-width:1.00000036"
       id="text1058"
       font-size="49"
       y="94.440254"
       x="257.04379">CCS-811</text>
    <polygon
       style="fill:#404040"
       transform="matrix(-0.10000003,0,0,-0.10000003,270.25384,717.40402)"
       points="2217.11,1000 2782.75,1000 3000,782.747 3000,217.113 2782.75,0 2217.11,0 2000,217.113 2000,782.747 "
       id="polygon39-2" />
    <polygon
       style="fill:#aa8800"
       transform="matrix(0.19251482,-0.02924925,0.05130483,0.05099886,-317.59746,979.3137)"
       points="1659.67,340.463 1659.67,659.674 1582.03,582.025 1582.03,417.974 "
       id="polygon33" />
    <rect
       style="fill:#808080;fill-opacity:1;stroke-width:0.0999992"
       transform="matrix(-0.81476953,-0.57978497,0.665266,-0.74660642,0,0)"
       y="-768.20093"
       x="-657.82764"
       height="8.5491552"
       width="8.8936462"
       id="rect3422" />
    <rect
       style="fill:#ffffff;stroke-width:0.09999929"
       transform="rotate(90)"
       width="16.418905"
       y="-17.456972"
       height="9.4534855"
       x="946.64734"
       id="rect29" />
    <polygon
       style="fill:#666666"
       transform="matrix(-0.09999854,0,0.05217162,-0.12397894,156.67577,1036.4757)"
       points="1659.67,659.674 1340.46,659.674 1417.97,582.025 1582.03,582.025 "
       id="polygon35" />
    <rect
       style="fill:#8d8c8c;stroke-width:0.09999929"
       width="31.920633"
       y="-685.12164"
       height="31.92111"
       x="-58.085758"
       id="rect43"
       transform="scale(-1)" />
    <rect
       style="fill:#8c8663;stroke-width:0.09999929"
       width="16.418659"
       y="-677.37054"
       height="16.418905"
       x="-50.334873"
       id="rect45"
       transform="scale(-1)" />
    <polygon
       style="fill:#b8af82"
       transform="matrix(-0.09999854,0,0,-0.10000003,292.12834,719.16796)"
       points="2340.46,340.463 2417.97,417.974 2582.03,417.974 2659.67,340.463 "
       id="polygon47" />
    <polygon
       style="fill:#80795b"
       transform="matrix(-0.09999854,0,0,-0.10000003,292.12834,719.16796)"
       points="2582.03,582.025 2582.03,417.974 2659.67,340.463 2659.67,659.674 "
       id="polygon49" />
    <polygon
       style="fill:#5e5b43"
       transform="matrix(-0.09999854,0,0,-0.10000003,292.12834,719.16796)"
       points="2417.97,582.025 2582.03,582.025 2659.67,659.674 2340.46,659.674 "
       id="polygon51" />
    <polygon
       style="fill:#9a916c"
       transform="matrix(-0.09999854,0,0,-0.10000003,292.12834,719.16796)"
       points="2340.46,340.463 2417.97,417.974 2417.97,582.025 2340.46,659.674 "
       id="polygon53-8" />
    <rect
       style="fill:#ffcc00;fill-opacity:1;stroke-width:0.09999929"
       y="-954.79303"
       x="-57.23592"
       height="100.00005"
       width="31.999533"
       id="connector2pin"
       transform="scale(-1)" />
    <rect
       style="fill:none;stroke:none;stroke-width:0"
       id="connector2terminal"
       gorn="0.1.5"
       x="35.983997"
       width="10.000004"
       height="10.000004"
       y="950.01379" />
    <rect
       style="fill:#666666;fill-opacity:1;stroke-width:0.09999929"
       id="rect3420"
       width="8.0207167"
       height="295.05222"
       x="-25.335329"
       y="-949.7149"
       transform="scale(-1)" />
    <rect
       style="fill:#666666;fill-opacity:1;stroke-width:0.09999929"
       y="-684.0224"
       x="-18.564608"
       height="28.838846"
       width="19.99971"
       id="rect3424"
       transform="scale(-1)" />
    <path
       id="rect27"
       d="m 12.434236,945.13421 -9.2773473,14.77052 20.5485173,20.14161 9.277336,-14.77052 z"
       style="fill:#ffffff;stroke-width:0.09885076" />
    <rect
       style="fill:#cccccc;fill-opacity:1;stroke-width:0.09999929"
       id="rect3681"
       width="31.999533"
       height="300.00012"
       x="-57.23592"
       y="-954.79303"
       transform="scale(-1)" />
    <text
       style="font-size:35px;font-family:OCRA;fill:#ffffff;stroke-width:1.00000036"
       x="-432.2988"
       y="37.852245"
       font-size="35"
       id="text498"
       transform="rotate(-90)" />
    <polygon
       style="fill:#404040"
       transform="matrix(-0.10000003,0,0,-0.10000003,370.25387,717.40402)"
       points="2217.11,0 2000,217.113 2000,782.747 2217.11,1000 2782.75,1000 3000,782.747 3000,217.113 2782.75,0 "
       id="polygon39-2-3" />
    <polygon
       style="fill:#aa8800"
       transform="matrix(0.19251486,-0.02924928,0.05130481,0.05099887,-217.59743,979.3137)"
       points="1659.67,340.463 1659.67,659.674 1582.03,582.025 1582.03,417.974 "
       id="polygon33-6" />
    <rect
       style="fill:#808080;fill-opacity:1;stroke-width:0.0999992"
       transform="matrix(-0.81476953,-0.57978497,0.66526599,-0.74660643,0,0)"
       y="-709.87378"
       x="-732.93719"
       height="8.5491552"
       width="8.8936462"
       id="rect3422-7" />
    <rect
       style="fill:#ffffff;stroke-width:0.0999993"
       transform="rotate(90)"
       width="16.418905"
       y="-117.45701"
       height="9.4534855"
       x="946.64734"
       id="rect29-5" />
    <polygon
       style="fill:#666666"
       transform="matrix(-0.09999857,0,0.05217158,-0.1239789,256.6758,1036.4757)"
       points="1340.46,659.674 1417.97,582.025 1582.03,582.025 1659.67,659.674 "
       id="polygon35-3" />
    <rect
       style="fill:#8d8c8c;stroke-width:0.0999993"
       width="31.920635"
       y="-685.12164"
       height="31.921112"
       x="-158.0858"
       id="rect43-5"
       transform="scale(-1)" />
    <rect
       style="fill:#8c8663;stroke-width:0.0999993"
       width="16.418659"
       y="-677.37054"
       height="16.418905"
       x="-150.33492"
       id="rect45-6"
       transform="scale(-1)" />
    <polygon
       style="fill:#b8af82"
       transform="matrix(-0.09999857,0,0,-0.10000003,392.12838,719.16796)"
       points="2582.03,417.974 2659.67,340.463 2340.46,340.463 2417.97,417.974 "
       id="polygon47-2" />
    <polygon
       style="fill:#80795b"
       transform="matrix(-0.09999857,0,0,-0.10000003,392.12838,719.16796)"
       points="2582.03,417.974 2659.67,340.463 2659.67,659.674 2582.03,582.025 "
       id="polygon49-9" />
    <polygon
       style="fill:#5e5b43"
       transform="matrix(-0.09999857,0,0,-0.10000003,392.12838,719.16796)"
       points="2417.97,582.025 2582.03,582.025 2659.67,659.674 2340.46,659.674 "
       id="polygon51-1" />
    <polygon
       style="fill:#9a916c"
       transform="matrix(-0.09999857,0,0,-0.10000003,392.12838,719.16796)"
       points="2340.46,659.674 2340.46,340.463 2417.97,417.974 2417.97,582.025 "
       id="polygon53-8-2" />
    <rect
       style="fill:#ffcc00;fill-opacity:1;stroke-width:0.0999993"
       y="-954.79303"
       x="-157.23598"
       height="100.00005"
       width="31.999535"
       id="connector2pin-7"
       transform="scale(-1)" />
    <rect
       style="fill:none;stroke:none;stroke-width:0"
       id="connector2terminal-0"
       gorn="0.1.5"
       x="135.98402"
       width="10.000004"
       height="10.000004"
       y="950.01379" />
    <rect
       style="fill:#666666;fill-opacity:1;stroke-width:0.0999993"
       id="rect3420-9"
       width="8.0207167"
       height="295.05222"
       x="-125.33537"
       y="-949.7149"
       transform="scale(-1)" />
    <rect
       style="fill:#666666;fill-opacity:1;stroke-width:0.0999993"
       y="-684.0224"
       x="-118.56464"
       height="28.838848"
       width="19.99971"
       id="rect3424-3"
       transform="scale(-1)" />
    <path
       id="rect27-6"
       d="m 112.43427,945.13423 -9.27734,14.77052 20.54851,20.14161 9.27734,-14.77052 z"
       style="fill:#ffffff;stroke-width:0.09885076" />
    <rect
       style="fill:#cccccc;fill-opacity:1;stroke-width:0.0999993"
       id="rect3681-0"
       width="31.999535"
       height="300.00012"
       x="-157.23598"
       y="-954.79303"
       transform="scale(-1)" />
    <polygon
       style="fill:#404040"
       transform="matrix(-0.10000003,0,0,-0.10000003,470.2539,717.40402)"
       points="2782.75,0 2217.11,0 2000,217.113 2000,782.747 2217.11,1000 2782.75,1000 3000,782.747 3000,217.113 "
       id="polygon39-2-6" />
    <polygon
       style="fill:#aa8800"
       transform="matrix(0.19251486,-0.02924928,0.05130481,0.05099887,-117.5974,979.3137)"
       points="1582.03,417.974 1659.67,340.463 1659.67,659.674 1582.03,582.025 "
       id="polygon33-2" />
    <rect
       style="fill:#808080;fill-opacity:1;stroke-width:0.0999992"
       transform="matrix(-0.81476953,-0.57978497,0.66526599,-0.74660643,0,0)"
       y="-651.54663"
       x="-808.04681"
       height="8.5491552"
       width="8.8936462"
       id="rect3422-6" />
    <rect
       style="fill:#ffffff;stroke-width:0.0999993"
       transform="rotate(90)"
       width="16.418905"
       y="-217.45705"
       height="9.4534855"
       x="946.6474"
       id="rect29-1" />
    <polygon
       style="fill:#666666"
       transform="matrix(-0.09999857,0,0.05217158,-0.1239789,356.67583,1036.4757)"
       points="1659.67,659.674 1340.46,659.674 1417.97,582.025 1582.03,582.025 "
       id="polygon35-8" />
    <rect
       style="fill:#8d8c8c;stroke-width:0.0999993"
       width="31.920635"
       y="-685.12164"
       height="31.921112"
       x="-258.08582"
       id="rect43-7"
       transform="scale(-1)" />
    <rect
       style="fill:#8c8663;stroke-width:0.0999993"
       width="16.418659"
       y="-677.37054"
       height="16.418905"
       x="-250.33495"
       id="rect45-9"
       transform="scale(-1)" />
    <polygon
       style="fill:#b8af82"
       transform="matrix(-0.09999857,0,0,-0.10000003,492.12841,719.16796)"
       points="2417.97,417.974 2582.03,417.974 2659.67,340.463 2340.46,340.463 "
       id="polygon47-20" />
    <polygon
       style="fill:#80795b"
       transform="matrix(-0.09999857,0,0,-0.10000003,492.12841,719.16796)"
       points="2582.03,582.025 2582.03,417.974 2659.67,340.463 2659.67,659.674 "
       id="polygon49-2" />
    <polygon
       style="fill:#5e5b43"
       transform="matrix(-0.09999857,0,0,-0.10000003,492.12841,719.16796)"
       points="2340.46,659.674 2417.97,582.025 2582.03,582.025 2659.67,659.674 "
       id="polygon51-3" />
    <polygon
       style="fill:#9a916c"
       transform="matrix(-0.09999857,0,0,-0.10000003,492.12841,719.16796)"
       points="2417.97,582.025 2340.46,659.674 2340.46,340.463 2417.97,417.974 "
       id="polygon53-8-7" />
    <rect
       style="fill:#ffcc00;fill-opacity:1;stroke-width:0.0999993"
       y="-954.79309"
       x="-257.23599"
       height="100.00005"
       width="31.999535"
       id="connector2pin-5"
       transform="scale(-1)" />
    <rect
       style="fill:none;stroke:none;stroke-width:0"
       id="connector2terminal-9"
       gorn="0.1.5"
       x="235.98405"
       width="10.000004"
       height="10.000004"
       y="950.01385" />
    <rect
       style="fill:#666666;fill-opacity:1;stroke-width:0.0999993"
       id="rect3420-2"
       width="8.0207167"
       height="295.05222"
       x="-225.3354"
       y="-949.71497"
       transform="scale(-1)" />
    <rect
       style="fill:#666666;fill-opacity:1;stroke-width:0.0999993"
       y="-684.0224"
       x="-218.56468"
       height="28.838848"
       width="19.99971"
       id="rect3424-2"
       transform="scale(-1)" />
    <path
       id="rect27-8"
       d="m 212.4343,945.13423 -9.27735,14.77052 20.54852,20.14161 9.27734,-14.77052 z"
       style="fill:#ffffff;stroke-width:0.09885076" />
    <rect
       style="fill:#cccccc;fill-opacity:1;stroke-width:0.0999993"
       id="rect3681-9"
       width="31.999535"
       height="300.00012"
       x="-257.23599"
       y="-954.79309"
       transform="scale(-1)" />
    <polygon
       style="fill:#404040"
       transform="matrix(-0.10000003,0,0,-0.10000003,570.25393,717.40402)"
       points="3000,217.113 2782.75,0 2217.11,0 2000,217.113 2000,782.747 2217.11,1000 2782.75,1000 3000,782.747 "
       id="polygon39-2-7" />
    <polygon
       style="fill:#aa8800"
       transform="matrix(0.19251486,-0.02924928,0.05130481,0.05099887,-17.597373,979.3137)"
       points="1582.03,582.025 1582.03,417.974 1659.67,340.463 1659.67,659.674 "
       id="polygon33-3" />
    <rect
       style="fill:#808080;fill-opacity:1;stroke-width:0.0999992"
       transform="matrix(-0.81476953,-0.57978497,0.66526599,-0.74660643,0,0)"
       y="-593.21954"
       x="-883.15637"
       height="8.5491552"
       width="8.8936462"
       id="rect3422-61" />
    <rect
       style="fill:#ffffff;stroke-width:0.0999993"
       transform="rotate(90)"
       width="16.418905"
       y="-317.45706"
       height="9.4534855"
       x="946.64734"
       id="rect29-2" />
    <polygon
       style="fill:#666666"
       transform="matrix(-0.09999857,0,0.05217158,-0.1239789,456.67586,1036.4757)"
       points="1582.03,582.025 1659.67,659.674 1340.46,659.674 1417.97,582.025 "
       id="polygon35-9" />
    <rect
       style="fill:#8d8c8c;stroke-width:0.0999993"
       width="31.920635"
       y="-685.12164"
       height="31.921112"
       x="-358.08585"
       id="rect43-3"
       transform="scale(-1)" />
    <rect
       style="fill:#8c8663;stroke-width:0.0999993"
       width="16.418659"
       y="-677.37054"
       height="16.418905"
       x="-350.33496"
       id="rect45-1"
       transform="scale(-1)" />
    <polygon
       style="fill:#b8af82"
       transform="matrix(-0.09999857,0,0,-0.10000003,592.12844,719.16796)"
       points="2340.46,340.463 2417.97,417.974 2582.03,417.974 2659.67,340.463 "
       id="polygon47-9" />
    <polygon
       style="fill:#80795b"
       transform="matrix(-0.09999857,0,0,-0.10000003,592.12844,719.16796)"
       points="2659.67,659.674 2582.03,582.025 2582.03,417.974 2659.67,340.463 "
       id="polygon49-4" />
    <polygon
       style="fill:#5e5b43"
       transform="matrix(-0.09999857,0,0,-0.10000003,592.12844,719.16796)"
       points="2659.67,659.674 2340.46,659.674 2417.97,582.025 2582.03,582.025 "
       id="polygon51-7" />
    <polygon
       style="fill:#9a916c"
       transform="matrix(-0.09999857,0,0,-0.10000003,592.12844,719.16796)"
       points="2417.97,417.974 2417.97,582.025 2340.46,659.674 2340.46,340.463 "
       id="polygon53-8-8" />
    <rect
       style="fill:#ffcc00;fill-opacity:1;stroke-width:0.0999993"
       y="-954.79303"
       x="-357.23599"
       height="100.00005"
       width="31.999535"
       id="connector2pin-4"
       transform="scale(-1)" />
    <rect
       style="fill:none;stroke:none;stroke-width:0"
       id="connector2terminal-5"
       gorn="0.1.5"
       x="335.98407"
       width="10.000004"
       height="10.000004"
       y="950.01379" />
    <rect
       style="fill:#666666;fill-opacity:1;stroke-width:0.0999993"
       id="rect3420-0"
       width="8.0207167"
       height="295.05222"
       x="-325.33542"
       y="-949.7149"
       transform="scale(-1)" />
    <rect
       style="fill:#666666;fill-opacity:1;stroke-width:0.0999993"
       y="-684.0224"
       x="-318.5647"
       height="28.838848"
       width="19.99971"
       id="rect3424-36"
       transform="scale(-1)" />
    <path
       id="rect27-1"
       d="m 312.43434,945.13423 -9.27735,14.77052 20.54852,20.14161 9.27733,-14.77052 z"
       style="fill:#ffffff;stroke-width:0.09885076" />
    <rect
       style="fill:#cccccc;fill-opacity:1;stroke-width:0.0999993"
       id="rect3681-06"
       width="31.999535"
       height="300.00012"
       x="-357.23599"
       y="-954.79303"
       transform="scale(-1)" />
    <polygon
       style="fill:#404040"
       transform="matrix(-0.10000003,0,0,-0.10000003,670.25396,717.40402)"
       points="3000,782.747 3000,217.113 2782.75,0 2217.11,0 2000,217.113 2000,782.747 2217.11,1000 2782.75,1000 "
       id="polygon39-2-32" />
    <polygon
       style="fill:#aa8800"
       transform="matrix(0.19251486,-0.02924928,0.05130481,0.05099887,82.402657,979.3137)"
       points="1659.67,659.674 1582.03,582.025 1582.03,417.974 1659.67,340.463 "
       id="polygon33-0" />
    <rect
       style="fill:#808080;fill-opacity:1;stroke-width:0.0999992"
       transform="matrix(-0.81476953,-0.57978497,0.66526599,-0.74660643,0,0)"
       y="-534.89246"
       x="-958.26593"
       height="8.5491552"
       width="8.8936462"
       id="rect3422-615" />
    <rect
       style="fill:#ffffff;stroke-width:0.0999993"
       transform="rotate(90)"
       width="16.418905"
       y="-417.45709"
       height="9.4534855"
       x="946.64734"
       id="rect29-54" />
    <polygon
       style="fill:#666666"
       transform="matrix(-0.09999857,0,0.05217158,-0.1239789,556.67589,1036.4757)"
       points="1417.97,582.025 1582.03,582.025 1659.67,659.674 1340.46,659.674 "
       id="polygon35-7" />
    <rect
       style="fill:#8d8c8c;stroke-width:0.0999993"
       width="31.920635"
       y="-685.12164"
       height="31.921112"
       x="-458.08588"
       id="rect43-6"
       transform="scale(-1)" />
    <rect
       style="fill:#8c8663;stroke-width:0.0999993"
       width="16.418659"
       y="-677.37054"
       height="16.418905"
       x="-450.33499"
       id="rect45-5"
       transform="scale(-1)" />
    <polygon
       style="fill:#b8af82"
       transform="matrix(-0.09999857,0,0,-0.10000003,692.12847,719.16796)"
       points="2659.67,340.463 2340.46,340.463 2417.97,417.974 2582.03,417.974 "
       id="polygon47-6" />
    <polygon
       style="fill:#80795b"
       transform="matrix(-0.09999857,0,0,-0.10000003,692.12847,719.16796)"
       points="2659.67,340.463 2659.67,659.674 2582.03,582.025 2582.03,417.974 "
       id="polygon49-93" />
    <polygon
       style="fill:#5e5b43"
       transform="matrix(-0.09999857,0,0,-0.10000003,692.12847,719.16796)"
       points="2582.03,582.025 2659.67,659.674 2340.46,659.674 2417.97,582.025 "
       id="polygon51-74" />
    <polygon
       style="fill:#9a916c"
       transform="matrix(-0.09999857,0,0,-0.10000003,692.12847,719.16796)"
       points="2340.46,340.463 2417.97,417.974 2417.97,582.025 2340.46,659.674 "
       id="polygon53-8-5" />
    <rect
       style="fill:#ffcc00;fill-opacity:1;stroke-width:0.0999993"
       y="-954.79303"
       x="-457.23605"
       height="100.00005"
       width="31.999535"
       id="connector2pin-2"
       transform="scale(-1)" />
    <rect
       style="fill:none;stroke:none;stroke-width:0"
       id="connector2terminal-54"
       gorn="0.1.5"
       x="435.98413"
       width="10.000004"
       height="10.000004"
       y="950.01379" />
    <rect
       style="fill:#666666;fill-opacity:1;stroke-width:0.0999993"
       id="rect3420-7"
       width="8.0207167"
       height="295.05222"
       x="-425.33545"
       y="-949.7149"
       transform="scale(-1)" />
    <rect
       style="fill:#666666;fill-opacity:1;stroke-width:0.0999993"
       y="-684.0224"
       x="-418.56473"
       height="28.838848"
       width="19.99971"
       id="rect3424-4"
       transform="scale(-1)" />
    <path
       id="rect27-4"
       d="m 412.43436,945.13423 -9.27735,14.77052 20.54852,20.14161 9.27734,-14.77052 z"
       style="fill:#ffffff;stroke-width:0.09885076" />
    <rect
       style="fill:#cccccc;fill-opacity:1;stroke-width:0.0999993"
       id="rect3681-3"
       width="31.999535"
       height="300.00012"
       x="-457.23605"
       y="-954.79303"
       transform="scale(-1)" />
    <polygon
       style="fill:#404040"
       transform="matrix(-0.10000003,0,0,-0.10000003,770.25399,717.40402)"
       points="2782.75,1000 3000,782.747 3000,217.113 2782.75,0 2217.11,0 2000,217.113 2000,782.747 2217.11,1000 "
       id="polygon39-2-0" />
    <polygon
       style="fill:#aa8800"
       transform="matrix(0.19251486,-0.02924928,0.05130481,0.05099887,182.40269,979.3137)"
       points="1659.67,340.463 1659.67,659.674 1582.03,582.025 1582.03,417.974 "
       id="polygon33-7" />
    <rect
       style="fill:#808080;fill-opacity:1;stroke-width:0.0999992"
       transform="matrix(-0.81476953,-0.57978497,0.66526599,-0.74660643,0,0)"
       y="-476.56531"
       x="-1033.3755"
       height="8.5491552"
       width="8.8936462"
       id="rect3422-8" />
    <rect
       style="fill:#ffffff;stroke-width:0.0999993"
       transform="rotate(90)"
       width="16.418905"
       y="-517.45715"
       height="9.4534855"
       x="946.64734"
       id="rect29-6" />
    <polygon
       style="fill:#666666"
       transform="matrix(-0.09999857,0,0.05217158,-0.1239789,656.67592,1036.4757)"
       points="1340.46,659.674 1417.97,582.025 1582.03,582.025 1659.67,659.674 "
       id="polygon35-88" />
    <rect
       style="fill:#8d8c8c;stroke-width:0.0999993"
       width="31.920635"
       y="-685.12164"
       height="31.921112"
       x="-558.08594"
       id="rect43-4"
       transform="scale(-1)" />
    <rect
       style="fill:#8c8663;stroke-width:0.0999993"
       width="16.418659"
       y="-677.37054"
       height="16.418905"
       x="-550.33502"
       id="rect45-3"
       transform="scale(-1)" />
    <polygon
       style="fill:#b8af82"
       transform="matrix(-0.09999857,0,0,-0.10000003,792.1285,719.16796)"
       points="2582.03,417.974 2659.67,340.463 2340.46,340.463 2417.97,417.974 "
       id="polygon47-1" />
    <polygon
       style="fill:#80795b"
       transform="matrix(-0.09999857,0,0,-0.10000003,792.1285,719.16796)"
       points="2582.03,417.974 2659.67,340.463 2659.67,659.674 2582.03,582.025 "
       id="polygon49-49" />
    <polygon
       style="fill:#5e5b43"
       transform="matrix(-0.09999857,0,0,-0.10000003,792.1285,719.16796)"
       points="2417.97,582.025 2582.03,582.025 2659.67,659.674 2340.46,659.674 "
       id="polygon51-2" />
    <polygon
       style="fill:#9a916c"
       transform="matrix(-0.09999857,0,0,-0.10000003,792.1285,719.16796)"
       points="2340.46,659.674 2340.46,340.463 2417.97,417.974 2417.97,582.025 "
       id="polygon53-8-0" />
    <rect
       style="fill:#ffcc00;fill-opacity:1;stroke-width:0.0999993"
       y="-954.79303"
       x="-557.23608"
       height="100.00005"
       width="31.999535"
       id="connector2pin-6"
       transform="scale(-1)" />
    <rect
       style="fill:none;stroke:none;stroke-width:0"
       id="connector2terminal-8"
       gorn="0.1.5"
       x="535.98413"
       width="10.000004"
       height="10.000004"
       y="950.01379" />
    <rect
       style="fill:#666666;fill-opacity:1;stroke-width:0.0999993"
       id="rect3420-92"
       width="8.0207167"
       height="295.05222"
       x="-525.33551"
       y="-949.7149"
       transform="scale(-1)" />
    <rect
       style="fill:#666666;fill-opacity:1;stroke-width:0.0999993"
       y="-684.0224"
       x="-518.56476"
       height="28.838848"
       width="19.99971"
       id="rect3424-6"
       transform="scale(-1)" />
    <path
       id="rect27-64"
       d="m 512.43439,945.13423 -9.27735,14.77052 20.54852,20.14161 9.27733,-14.77052 z"
       style="fill:#ffffff;stroke-width:0.09885076" />
    <rect
       style="fill:#cccccc;fill-opacity:1;stroke-width:0.0999993"
       id="rect3681-95"
       width="31.999535"
       height="300.00012"
       x="-557.23608"
       y="-954.79303"
       transform="scale(-1)" />
    <polygon
       style="fill:#404040"
       transform="matrix(-0.1,0,0,-0.10000006,870.25393,717.40403)"
       points="2000,217.113 2000,782.747 2217.11,1000 2782.75,1000 3000,782.747 3000,217.113 2782.75,0 2217.11,0 "
       id="polygon39-2-0-0" />
    <polygon
       style="fill:#aa8800"
       transform="matrix(0.19251484,-0.02924933,0.05130482,0.05099891,282.40263,979.31372)"
       points="1659.67,340.463 1659.67,659.674 1582.03,582.025 1582.03,417.974 "
       id="polygon33-7-4" />
    <rect
       style="fill:#808080;fill-opacity:1;stroke-width:0.09999922"
       transform="matrix(-0.8147695,-0.57978501,0.66526596,-0.74660646,0,0)"
       y="-418.23825"
       x="-1108.485"
       height="8.5491552"
       width="8.8936462"
       id="rect3422-8-8" />
    <rect
       style="fill:#ffffff;stroke-width:0.09999928"
       transform="rotate(90)"
       width="16.418905"
       y="-617.45709"
       height="9.4534855"
       x="946.64734"
       id="rect29-6-7" />
    <polygon
       style="fill:#666666"
       transform="matrix(-0.09999853,0,0.05217154,-0.12397891,756.67586,1036.4757)"
       points="1417.97,582.025 1582.03,582.025 1659.67,659.674 1340.46,659.674 "
       id="polygon35-88-1" />
    <rect
       style="fill:#8d8c8c;stroke-width:0.09999928"
       width="31.920635"
       y="-685.12164"
       height="31.92111"
       x="-658.08588"
       id="rect43-4-7"
       transform="scale(-1)" />
    <rect
       style="fill:#8c8663;stroke-width:0.09999928"
       width="16.418659"
       y="-677.37054"
       height="16.418905"
       x="-650.33496"
       id="rect45-3-2"
       transform="scale(-1)" />
    <polygon
       style="fill:#b8af82"
       transform="matrix(-0.09999853,0,0,-0.10000006,892.12844,719.16797)"
       points="2340.46,340.463 2417.97,417.974 2582.03,417.974 2659.67,340.463 "
       id="polygon47-1-7" />
    <polygon
       style="fill:#80795b"
       transform="matrix(-0.09999853,0,0,-0.10000006,892.12844,719.16797)"
       points="2659.67,340.463 2659.67,659.674 2582.03,582.025 2582.03,417.974 "
       id="polygon49-49-2" />
    <polygon
       style="fill:#5e5b43"
       transform="matrix(-0.09999853,0,0,-0.10000006,892.12844,719.16797)"
       points="2417.97,582.025 2582.03,582.025 2659.67,659.674 2340.46,659.674 "
       id="polygon51-2-2" />
    <polygon
       style="fill:#9a916c"
       transform="matrix(-0.09999853,0,0,-0.10000006,892.12844,719.16797)"
       points="2417.97,582.025 2340.46,659.674 2340.46,340.463 2417.97,417.974 "
       id="polygon53-8-0-6" />
    <rect
       style="fill:#ffcc00;fill-opacity:1;stroke-width:0.09999928"
       y="-954.79303"
       x="-657.23602"
       height="100.00005"
       width="31.999535"
       id="connector2pin-6-1"
       transform="scale(-1)" />
    <rect
       style="fill:none;stroke:none;stroke-width:0"
       id="connector2terminal-8-0"
       gorn="0.1.5"
       x="635.98407"
       width="10.000003"
       height="10.000004"
       y="950.01379" />
    <rect
       style="fill:#666666;fill-opacity:1;stroke-width:0.09999928"
       id="rect3420-92-6"
       width="8.0207167"
       height="295.05222"
       x="-625.33545"
       y="-949.7149"
       transform="scale(-1)" />
    <rect
       style="fill:#666666;fill-opacity:1;stroke-width:0.09999928"
       y="-684.0224"
       x="-618.5647"
       height="28.83885"
       width="19.99971"
       id="rect3424-6-1"
       transform="scale(-1)" />
    <path
       id="rect27-64-5"
       d="m 612.43431,945.13424 -9.27735,14.77052 20.54852,20.14161 9.27733,-14.77052 z"
       style="fill:#ffffff;stroke-width:0.09885072" />
    <rect
       style="fill:#cccccc;fill-opacity:1;stroke-width:0.09999928"
       id="rect3681-95-9"
       width="31.999535"
       height="300.00012"
       x="-657.23602"
       y="-954.79303"
       transform="scale(-1)" />
    <polygon
       style="fill:#404040"
       transform="matrix(-0.1,0,0,-0.10000006,970.25393,717.40403)"
       points="2217.11,0 2000,217.113 2000,782.747 2217.11,1000 2782.75,1000 3000,782.747 3000,217.113 2782.75,0 "
       id="polygon39-2-0-4" />
    <polygon
       style="fill:#aa8800"
       transform="matrix(0.19251484,-0.02924933,0.05130482,0.05099891,382.40264,979.31372)"
       points="1582.03,417.974 1659.67,340.463 1659.67,659.674 1582.03,582.025 "
       id="polygon33-7-9" />
    <rect
       style="fill:#808080;fill-opacity:1;stroke-width:0.09999922"
       transform="matrix(-0.8147695,-0.57978501,0.66526596,-0.74660646,0,0)"
       y="-359.91116"
       x="-1183.5945"
       height="8.5491552"
       width="8.8936462"
       id="rect3422-8-0" />
    <rect
       style="fill:#ffffff;stroke-width:0.09999928"
       transform="rotate(90)"
       width="16.418905"
       y="-717.45709"
       height="9.4534855"
       x="946.64734"
       id="rect29-6-9" />
    <polygon
       style="fill:#666666"
       transform="matrix(-0.09999853,0,0.05217154,-0.12397891,856.67587,1036.4757)"
       points="1340.46,659.674 1417.97,582.025 1582.03,582.025 1659.67,659.674 "
       id="polygon35-88-17" />
    <rect
       style="fill:#8d8c8c;stroke-width:0.09999928"
       width="31.920635"
       y="-685.12164"
       height="31.92111"
       x="-758.08588"
       id="rect43-4-71"
       transform="scale(-1)" />
    <rect
       style="fill:#8c8663;stroke-width:0.09999928"
       width="16.418659"
       y="-677.37054"
       height="16.418905"
       x="-750.33496"
       id="rect45-3-1"
       transform="scale(-1)" />
    <polygon
       style="fill:#b8af82"
       transform="matrix(-0.09999853,0,0,-0.10000006,992.12844,719.16796)"
       points="2659.67,340.463 2340.46,340.463 2417.97,417.974 2582.03,417.974 "
       id="polygon47-1-5" />
    <polygon
       style="fill:#80795b"
       transform="matrix(-0.09999853,0,0,-0.10000006,992.12844,719.16796)"
       points="2582.03,417.974 2659.67,340.463 2659.67,659.674 2582.03,582.025 "
       id="polygon49-49-9" />
    <polygon
       style="fill:#5e5b43"
       transform="matrix(-0.09999853,0,0,-0.10000006,992.12844,719.16796)"
       points="2340.46,659.674 2417.97,582.025 2582.03,582.025 2659.67,659.674 "
       id="polygon51-2-7" />
    <polygon
       style="fill:#9a916c"
       transform="matrix(-0.09999853,0,0,-0.10000006,992.12844,719.16796)"
       points="2417.97,417.974 2417.97,582.025 2340.46,659.674 2340.46,340.463 "
       id="polygon53-8-0-7" />
    <rect
       style="fill:#ffcc00;fill-opacity:1;stroke-width:0.09999928"
       y="-954.79303"
       x="-757.23602"
       height="100.00005"
       width="31.999535"
       id="connector2pin-6-6"
       transform="scale(-1)" />
    <rect
       style="fill:none;stroke:none;stroke-width:0"
       id="connector2terminal-8-7"
       gorn="0.1.5"
       x="735.98407"
       width="10.000003"
       height="10.000004"
       y="950.01379" />
    <rect
       style="fill:#666666;fill-opacity:1;stroke-width:0.09999928"
       id="rect3420-92-3"
       width="8.0207167"
       height="295.05222"
       x="-725.33545"
       y="-949.7149"
       transform="scale(-1)" />
    <rect
       style="fill:#666666;fill-opacity:1;stroke-width:0.09999928"
       y="-684.0224"
       x="-718.5647"
       height="28.83885"
       width="19.99971"
       id="rect3424-6-6"
       transform="scale(-1)" />
    <path
       id="rect27-64-56"
       d="m 712.43432,945.13424 -9.27735,14.77052 20.54852,20.14161 9.27733,-14.77052 z"
       style="fill:#ffffff;stroke-width:0.09885072" />
    <rect
       style="fill:#cccccc;fill-opacity:1;stroke-width:0.09999928"
       id="rect3681-95-3"
       width="31.999535"
       height="300.00012"
       x="-757.23602"
       y="-954.79303"
       transform="scale(-1)" />
    <ellipse
       ry="58.05949"
       rx="62.397179"
       cy="77.799728"
       cx="54.550755"
       id="path4972"
       style="fill:#ffffff;fill-opacity:1;stroke-width:10.48905277" />
    <ellipse
       ry="58.05949"
       rx="62.397179"
       cy="80.122101"
       cx="684.93719"
       id="path4972-9"
       style="fill:#ffffff;fill-opacity:1;stroke-width:10.48905277" />
    <rect
       y="255.46176"
       x="289.5607"
       height="176.50084"
       width="138.78998"
       id="rect4989"
       style="fill:#ffffff;fill-opacity:1;stroke-width:10.48905277" />
    <rect
       y="264.75128"
       x="298.89108"
       height="157.92183"
       width="121.29546"
       id="rect4991"
       style="fill:#000000;fill-opacity:1;stroke-width:11.92270565" />
  </g>
</svg>
